<svg width="142" height="146" viewBox="0 0 142 146" fill="none" xmlns="http://www.w3.org/2000/svg">
<path d="M90.9896 69.2668C92.3257 70.036 92.3257 71.964 90.9896 72.7332L63.9979 88.2739C62.6646 89.0416 61 88.0792 61 86.5407L61 55.4593C61 53.9208 62.6646 52.9584 63.9979 53.7261L90.9896 69.2668Z" fill="white"/>
<path d="M120.498 120.497C130.287 110.708 136.954 98.235 139.655 84.6563C142.356 71.0777 140.97 57.003 135.672 44.2122C130.373 31.4213 121.401 20.4888 109.89 12.7971C98.3785 5.10543 84.8447 1 71 1C57.1553 1 43.6216 5.10543 32.1101 12.7971C20.5987 20.4888 11.6266 31.4213 6.32847 44.2122C1.03034 57.003 -0.355906 71.0777 2.34506 84.6563C5.04603 98.235 11.7129 110.708 21.5026 120.497" stroke="white"/>
<path d="M39.1193 139V137.727L43.0568 133.648C43.4773 133.205 43.8239 132.816 44.0966 132.483C44.3731 132.146 44.5795 131.826 44.7159 131.523C44.8523 131.22 44.9205 130.898 44.9205 130.557C44.9205 130.17 44.8295 129.837 44.6477 129.557C44.4659 129.273 44.2178 129.055 43.9034 128.903C43.589 128.748 43.2348 128.67 42.8409 128.67C42.4242 128.67 42.0606 128.756 41.75 128.926C41.4394 129.097 41.2008 129.337 41.0341 129.648C40.8674 129.958 40.7841 130.322 40.7841 130.739H39.108C39.108 130.03 39.2708 129.411 39.5966 128.881C39.9223 128.35 40.3693 127.939 40.9375 127.648C41.5057 127.352 42.1515 127.205 42.875 127.205C43.6061 127.205 44.25 127.35 44.8068 127.642C45.3674 127.93 45.8049 128.324 46.1193 128.824C46.4337 129.32 46.5909 129.881 46.5909 130.506C46.5909 130.938 46.5095 131.36 46.3466 131.773C46.1875 132.186 45.9091 132.646 45.5114 133.153C45.1136 133.657 44.5606 134.269 43.8523 134.989L41.5398 137.409V137.494H46.7784V139H39.1193ZM50.0739 137.557C49.7633 137.557 49.4962 137.447 49.2727 137.227C49.0492 137.004 48.9375 136.735 48.9375 136.42C48.9375 136.11 49.0492 135.845 49.2727 135.625C49.4962 135.402 49.7633 135.29 50.0739 135.29C50.3845 135.29 50.6515 135.402 50.875 135.625C51.0985 135.845 51.2102 136.11 51.2102 136.42C51.2102 136.629 51.1572 136.82 51.0511 136.994C50.9489 137.165 50.8125 137.301 50.642 137.403C50.4716 137.506 50.2822 137.557 50.0739 137.557ZM50.0739 131.727C49.7633 131.727 49.4962 131.617 49.2727 131.398C49.0492 131.174 48.9375 130.905 48.9375 130.591C48.9375 130.28 49.0492 130.015 49.2727 129.795C49.4962 129.572 49.7633 129.46 50.0739 129.46C50.3845 129.46 50.6515 129.572 50.875 129.795C51.0985 130.015 51.2102 130.28 51.2102 130.591C51.2102 130.799 51.1572 130.991 51.0511 131.165C50.9489 131.335 50.8125 131.472 50.642 131.574C50.4716 131.676 50.2822 131.727 50.0739 131.727ZM57.5142 139.159C56.7339 139.159 56.0369 139.025 55.4233 138.756C54.8134 138.487 54.3305 138.114 53.9744 137.636C53.6222 137.155 53.4328 136.598 53.4062 135.966H55.1903C55.2131 136.311 55.3286 136.61 55.5369 136.864C55.7491 137.114 56.0256 137.307 56.3665 137.443C56.7074 137.58 57.0862 137.648 57.5028 137.648C57.9612 137.648 58.3665 137.568 58.7188 137.409C59.0748 137.25 59.3532 137.028 59.554 136.744C59.7547 136.456 59.8551 136.125 59.8551 135.75C59.8551 135.36 59.7547 135.017 59.554 134.722C59.357 134.422 59.0672 134.187 58.6847 134.017C58.3059 133.847 57.8475 133.761 57.3097 133.761H56.3267V132.33H57.3097C57.7415 132.33 58.1203 132.252 58.446 132.097C58.7756 131.941 59.0331 131.725 59.2188 131.449C59.4044 131.169 59.4972 130.841 59.4972 130.466C59.4972 130.106 59.4157 129.794 59.2528 129.528C59.0938 129.259 58.8665 129.049 58.571 128.898C58.2794 128.746 57.9347 128.67 57.5369 128.67C57.1581 128.67 56.804 128.741 56.4744 128.881C56.1487 129.017 55.8835 129.214 55.679 129.472C55.4744 129.725 55.3646 130.03 55.3494 130.386H53.6506C53.6695 129.758 53.8551 129.205 54.2074 128.727C54.5634 128.25 55.0331 127.877 55.6165 127.608C56.1998 127.339 56.8475 127.205 57.5597 127.205C58.3059 127.205 58.9498 127.35 59.4915 127.642C60.0369 127.93 60.4574 128.314 60.7528 128.795C61.0521 129.277 61.1998 129.803 61.196 130.375C61.1998 131.027 61.018 131.58 60.6506 132.034C60.2869 132.489 59.8021 132.794 59.196 132.949V133.04C59.9688 133.157 60.5672 133.464 60.9915 133.96C61.4195 134.456 61.6316 135.072 61.6278 135.807C61.6316 136.447 61.4536 137.021 61.0938 137.528C60.7377 138.036 60.2509 138.436 59.6335 138.727C59.0161 139.015 58.3097 139.159 57.5142 139.159ZM67.8381 139.159C67.3191 139.152 66.8078 139.057 66.304 138.875C65.804 138.693 65.3494 138.39 64.9403 137.966C64.5313 137.542 64.2036 136.972 63.9574 136.256C63.715 135.54 63.5938 134.646 63.5938 133.574C63.5938 132.559 63.6941 131.657 63.8949 130.869C64.0994 130.081 64.393 129.417 64.7756 128.875C65.1581 128.33 65.6203 127.915 66.1619 127.631C66.7036 127.347 67.3116 127.205 67.9858 127.205C68.679 127.205 69.2945 127.341 69.8324 127.614C70.3703 127.886 70.8059 128.263 71.1392 128.744C71.4763 129.225 71.6903 129.773 71.7812 130.386H70.0483C69.9309 129.902 69.6979 129.506 69.3494 129.199C69.0009 128.892 68.5464 128.739 67.9858 128.739C67.1335 128.739 66.4688 129.11 65.9915 129.852C65.518 130.595 65.2794 131.627 65.2756 132.949H65.3608C65.5616 132.619 65.8078 132.339 66.0994 132.108C66.3949 131.873 66.7244 131.693 67.0881 131.568C67.4555 131.439 67.8419 131.375 68.2472 131.375C68.9214 131.375 69.5313 131.54 70.0767 131.869C70.6259 132.195 71.0634 132.646 71.3892 133.222C71.715 133.797 71.8778 134.456 71.8778 135.199C71.8778 135.941 71.7093 136.614 71.3722 137.216C71.0388 137.818 70.5691 138.295 69.9631 138.648C69.357 138.996 68.6487 139.167 67.8381 139.159ZM67.8324 137.682C68.2794 137.682 68.679 137.572 69.0312 137.352C69.3835 137.133 69.6619 136.837 69.8665 136.466C70.071 136.095 70.1733 135.68 70.1733 135.222C70.1733 134.775 70.0729 134.367 69.8722 134C69.6752 133.633 69.4025 133.341 69.054 133.125C68.7093 132.909 68.3153 132.801 67.8722 132.801C67.535 132.801 67.2225 132.866 66.9347 132.994C66.6506 133.123 66.4006 133.301 66.1847 133.528C65.9688 133.756 65.7983 134.017 65.6733 134.312C65.5521 134.604 65.4915 134.913 65.4915 135.239C65.4915 135.674 65.5919 136.078 65.7926 136.449C65.9972 136.82 66.2756 137.119 66.6278 137.347C66.9839 137.57 67.3854 137.682 67.8324 137.682ZM83.1023 136.898L85.9205 130.273H87.3864L83.733 139H82.4716L78.892 130.273H80.3409L83.1023 136.898ZM79.8693 130.273V139H78.2045V130.273H79.8693ZM86.3807 139V130.273H88.0341V139H86.3807ZM91.9631 136.619L95.8097 130.273H97.6392V139H95.9744V132.648L92.1449 139H90.2983V130.273H91.9631V136.619ZM105.838 133.903V135.375H101.111V133.903H105.838ZM101.588 130.273V139H99.9233V130.273H101.588ZM107.026 130.273V139H105.366V130.273H107.026Z" fill="white"/>
</svg>
