<svg width="356" height="556" viewBox="0 0 356 556" fill="none" xmlns="http://www.w3.org/2000/svg">
<path d="M76.3788 175.58L114.772 214.787L168.961 200.345L182.749 147.231L144.356 108.024L90.167 122.466L76.3788 175.58Z" fill="#E5ECF0"/>
<path d="M25.0292 -17.0903L63.4225 22.1166L117.611 7.67447L131.399 -45.4398L93.0059 -84.6468L38.8174 -70.2046L25.0292 -17.0903Z" fill="#E5ECF0"/>
<path d="M-19.7462 149.613L18.6472 188.82L72.8357 174.378L86.6239 121.263L48.2305 82.0563L-5.95804 96.4985L-19.7462 149.613Z" fill="#E5ECF0"/>
<path d="M-71.0958 -43.0576L-32.7025 -3.85064L21.4861 -18.2928L35.2743 -71.4071L-3.11908 -110.614L-57.3076 -96.1719L-71.0958 -43.0576Z" fill="#D7E0E9" fill-opacity="0.76"/>
<path d="M-13.1759 508.981L25.2175 548.188L79.406 533.746L93.1942 480.632L54.8008 441.425L0.612277 455.867L-13.1759 508.981Z" fill="#E5ECF0"/>
<path d="M-64.5255 316.312L-26.1321 355.519L28.0564 341.076L41.8446 287.962L3.45124 248.755L-50.7373 263.197L-64.5255 316.312Z" fill="#D7E0E9" fill-opacity="0.76"/>
<path d="M-115.875 123.641L-77.4818 162.848L-23.2932 148.405L-9.50499 95.2912L-47.8984 56.0842L-102.087 70.5263L-115.875 123.641Z" fill="#E5ECF0"/>
<path d="M5.92759 245.946L44.321 285.153L98.5095 270.711L112.298 217.596L73.9044 178.389L19.7158 192.832L5.92759 245.946Z" fill="#D7E0E9" fill-opacity="0.76"/>
<path d="M-45.422 53.2749L-7.02863 92.4819L47.1599 78.0397L60.9481 24.9254L22.5548 -14.2816L-31.6338 0.160617L-45.422 53.2749Z" fill="#E5ECF0"/>
<path d="M121.158 8.88182L159.551 48.0888L213.74 33.6466L227.528 -19.4676L189.135 -58.6746L134.946 -44.2324L121.158 8.88182Z" fill="#D7E0E9" fill-opacity="0.76"/>
</svg>
