<svg width="1216" height="675" viewBox="0 0 1216 675" fill="none" xmlns="http://www.w3.org/2000/svg">
<g opacity="0.85">
<path d="M1252.56 298.571L1199.42 312.288L1184.91 366.458L1224.06 404.903L1277.2 391.186L1291.71 337.017L1252.56 298.571Z" fill="#D7E0E9" fill-opacity="0.76"/>
<path d="M1278.39 394.733L1225.26 408.451L1210.75 462.62L1249.9 501.066L1303.04 487.348L1317.55 433.179L1278.39 394.733Z" fill="#D7E0E9" fill-opacity="0.76"/>
<path d="M1052.89 -111.879L999.76 -98.1622L985.246 -43.993L1024.4 -5.54727L1077.53 -19.2644L1092.05 -73.4337L1052.89 -111.879Z" fill="#E5ECF0"/>
<path d="M1245.49 -60.2725L1192.36 -46.5553L1177.85 7.6139L1217 46.0597L1270.14 32.3425L1284.65 -21.8267L1245.49 -60.2725Z" fill="#E5ECF0"/>
<path d="M886.133 -67.3257L833.001 -53.6085L818.486 0.560681L857.642 39.0064L910.774 25.2893L925.289 -28.88L886.133 -67.3257Z" fill="#D7E0E9" fill-opacity="0.76"/>
<path d="M1078.73 -15.7173L1025.6 -2.00013L1011.09 52.1691L1050.24 90.6148L1103.38 76.8977L1117.89 22.7284L1078.73 -15.7173Z" fill="#E5ECF0"/>
<path d="M1271.34 35.8896L1218.2 49.6068L1203.69 103.776L1242.84 142.222L1295.98 128.505L1310.49 74.3354L1271.34 35.8896Z" fill="#E5ECF0"/>
<path d="M1149.19 -86.0767L1096.06 -72.3595L1081.54 -18.1903L1120.7 20.2555L1173.83 6.53829L1188.35 -47.6309L1149.19 -86.0767Z" fill="#D7E0E9" fill-opacity="0.76"/>
<path d="M789.829 -93.1285L736.696 -79.4113L722.181 -25.2421L761.337 13.2037L814.47 -0.513472L828.984 -54.6827L789.829 -93.1285Z" fill="#E5ECF0"/>
<path d="M982.43 -41.5215L929.297 -27.8043L914.783 26.3649L953.938 64.8106L1007.07 51.0935L1021.59 -3.07575L982.43 -41.5215Z" fill="#E5ECF0"/>
<path d="M1175.03 10.0854L1121.9 23.8026L1107.38 77.9718L1146.54 116.418L1199.67 102.7L1214.19 48.5312L1175.03 10.0854Z" fill="#E5ECF0"/>
<path d="M815.67 3.03171L762.538 16.7489L748.023 70.9181L787.179 109.364L840.311 95.6467L854.826 41.4775L815.67 3.03171Z" fill="#E5ECF0"/>
<path d="M771.053 169.551L717.92 183.268L703.406 237.438L742.561 275.883L795.694 262.166L810.209 207.997L771.053 169.551Z" fill="#E5ECF0"/>
<path d="M1008.27 54.6386L955.139 68.3558L940.625 122.525L979.78 160.971L1032.91 147.254L1047.43 93.0844L1008.27 54.6386Z" fill="#D7E0E9" fill-opacity="0.76"/>
<path d="M963.655 221.16L910.522 234.877L896.007 289.046L935.163 327.492L988.296 313.775L1002.81 259.605L963.655 221.16Z" fill="#E5ECF0"/>
<path d="M385.85 66.3359L332.717 80.0531L318.203 134.222L357.358 172.668L410.491 158.951L425.006 104.782L385.85 66.3359Z" fill="#E5ECF0"/>
<path d="M1156.26 272.767L1103.12 286.484L1088.61 340.653L1127.76 379.099L1180.9 365.382L1195.41 311.212L1156.26 272.767Z" fill="#E5ECF0"/>
<path d="M623.069 -48.5752L569.936 -34.858L555.421 19.3112L594.577 57.7569L647.71 44.0398L662.224 -10.1295L623.069 -48.5752Z" fill="#E5ECF0"/>
<path d="M578.452 117.944L525.319 131.661L510.804 185.831L549.96 224.276L603.093 210.559L617.607 156.39L578.452 117.944Z" fill="#E5ECF0"/>
<path d="M841.51 99.1938L788.377 112.911L773.863 167.08L813.019 205.526L866.151 191.809L880.666 137.64L841.51 99.1938Z" fill="#E5ECF0"/>
<path d="M1034.11 150.801L980.979 164.518L966.464 218.687L1005.62 257.133L1058.75 243.416L1073.27 189.247L1034.11 150.801Z" fill="#E5ECF0"/>
<path d="M456.307 -4.02152L403.174 9.69567L388.66 63.8649L427.815 102.311L480.948 88.5935L495.463 34.4242L456.307 -4.02152Z" fill="#E5ECF0"/>
<path d="M1226.71 202.409L1173.58 216.126L1159.07 270.295L1198.22 308.741L1251.35 295.024L1265.87 240.854L1226.71 202.409Z" fill="#E5ECF0"/>
<path d="M1182.1 368.929L1128.97 382.646L1114.45 436.815L1153.61 475.261L1206.74 461.544L1221.25 407.374L1182.1 368.929Z" fill="#E5ECF0"/>
<path d="M648.909 47.5869L595.776 61.3041L581.261 115.473L620.417 153.919L673.55 140.202L688.064 86.0326L648.909 47.5869Z" fill="#D7E0E9" fill-opacity="0.76"/>
<path d="M674.75 143.749L621.618 157.466L607.103 211.635L646.259 250.081L699.391 236.363L713.906 182.194L674.75 143.749Z" fill="#E5ECF0"/>
<path d="M911.973 28.8359L858.84 42.5531L844.326 96.7223L883.481 135.168L936.614 121.451L951.129 67.2817L911.973 28.8359Z" fill="#E5ECF0"/>
<path d="M1104.57 80.4428L1051.44 94.16L1036.93 148.329L1076.08 186.775L1129.22 173.058L1143.73 118.889L1104.57 80.4428Z" fill="#E5ECF0"/>
<path d="M1059.95 246.962L1006.82 260.68L992.306 314.849L1031.46 353.295L1084.59 339.577L1099.11 285.408L1059.95 246.962Z" fill="#D7E0E9" fill-opacity="0.76"/>
<path d="M526.77 -74.3794L473.637 -60.6622L459.123 -6.49303L498.278 31.9527L551.411 18.2356L565.926 -35.9337L526.77 -74.3794Z" fill="#E5ECF0"/>
<path d="M745.213 73.3896L692.081 87.1068L677.566 141.276L716.722 179.722L769.854 166.005L784.369 111.835L745.213 73.3896Z" fill="#E5ECF0"/>
<path d="M937.815 124.998L884.682 138.715L870.168 192.884L909.323 231.33L962.456 217.613L976.97 163.444L937.815 124.998Z" fill="#E5ECF0"/>
<path d="M360.01 -29.8257L306.877 -16.1085L292.363 38.0607L331.519 76.5064L384.651 62.7893L399.166 8.62005L360.01 -29.8257Z" fill="#D7E0E9" fill-opacity="0.76"/>
<path d="M552.612 21.7827L499.479 35.4999L484.964 89.6691L524.12 128.115L577.253 114.398L591.767 60.2284L552.612 21.7827Z" fill="#E5ECF0"/>
<path d="M507.989 188.302L454.856 202.019L440.341 256.189L479.497 294.634L532.63 280.917L547.144 226.748L507.989 188.302Z" fill="#D7E0E9" fill-opacity="0.76"/>
</g>
</svg>
